HIERARCHY
ROOT Hips
{
	OFFSET 0.000000 88.474243 0.000000
	CHANNELS 6 Xposition Yposition Zposition Zrotation Yrotation Xrotation 
	JOINT Hips_Spine
	{
		OFFSET 0.000000 0.000000 0.000000
		CHANNELS 3 Zrotation Yrotation Xrotation
		JOINT Spine
		{
			OFFSET 0.005100 8.711998 -0.691000
			CHANNELS 3 Zrotation Yrotation Xrotation
			JOINT Spine1
			{
				OFFSET -0.009200 8.660301 -1.275000
				CHANNELS 3 Zrotation Yrotation Xrotation
				JOINT Spine2
				{
					OFFSET 0.006300 9.852501 -1.857000
					CHANNELS 3 Zrotation Yrotation Xrotation
					JOINT Spine2_Neck
					{
						OFFSET 0.000000 0.000000 0.000000
						CHANNELS 3 Zrotation Yrotation Xrotation
						JOINT Neck
						{
							OFFSET 0.016300 11.420799 -0.263300
							CHANNELS 3 Zrotation Yrotation Xrotation
							End Site #name: Head
							{
								OFFSET -0.019200 9.262405 2.362500
							}
						}
					}
					JOINT Spine2_LeftShoulder
					{
						OFFSET 0.000000 0.000000 0.000000
						CHANNELS 3 Zrotation Yrotation Xrotation
						JOINT LeftShoulder
						{
							OFFSET 5.616900 6.732201 -0.345700
							CHANNELS 3 Zrotation Yrotation Xrotation
							JOINT LeftArm
							{
								OFFSET 10.664888 -0.183372 -2.440700
								CHANNELS 3 Zrotation Yrotation Xrotation
								JOINT LeftForeArm
								{
									OFFSET 27.459126 0.000000 0.000000
									CHANNELS 3 Zrotation Yrotation Xrotation
									End Site #name: LeftHand
									{
										OFFSET 21.306858 0.000000 0.000000
									}
								}
							}
						}
					}
					JOINT Spine2_RightShoulder
					{
						OFFSET 0.000000 0.000000 0.000000
						CHANNELS 3 Zrotation Yrotation Xrotation
						JOINT RightShoulder
						{
							OFFSET -5.580300 6.737503 -0.344400
							CHANNELS 3 Zrotation Yrotation Xrotation
							JOINT RightArm
							{
								OFFSET -10.679335 -0.188484 -2.383900
								CHANNELS 3 Zrotation Yrotation Xrotation
								JOINT RightForeArm
								{
									OFFSET -27.503529 0.000000 0.000000
									CHANNELS 3 Zrotation Yrotation Xrotation
									End Site #name: RightHand
									{
										OFFSET -21.306808 0.000000 0.000000
									}
								}
							}
						}
					}
				}
			}
		}
	}
	JOINT Hips_LeftUpLeg
	{
		OFFSET 0.000000 0.000000 0.000000
		CHANNELS 3 Zrotation Yrotation Xrotation
		JOINT LeftUpLeg
		{
			OFFSET 6.857700 -6.739601 0.312100
			CHANNELS 3 Zrotation Yrotation Xrotation
			JOINT LeftLeg
			{
				OFFSET -0.367590 -34.731552 -4.572400
				CHANNELS 3 Zrotation Yrotation Xrotation
				End Site #name: LeftFoot
				{
					OFFSET 0.367590 -34.656704 -6.067400
				}
			}
		}
	}
	JOINT Hips_RightUpLeg
	{
		OFFSET 0.000000 0.000000 0.000000
		CHANNELS 3 Zrotation Yrotation Xrotation
		JOINT RightUpLeg
		{
			OFFSET -6.876100 -6.733299 0.301000
			CHANNELS 3 Zrotation Yrotation Xrotation
			JOINT RightLeg
			{
				OFFSET 0.347353 -34.795158 -4.515900
				CHANNELS 3 Zrotation Yrotation Xrotation
				End Site #name: RightFoot
				{
					OFFSET -0.347353 -34.589367 -6.070300
				}
			}
		}
	}
}
MOTION
Frames: 15
Frame Time: 0.041667
0.015730 0.019214 -0.015481 -4.851539 -1.766324 -2.923415 0.000000 -0.000000 0.000000 2.910671 2.073742 16.444403 1.109002 1.265082 2.909737 0.000000 0.000000 0.000000 1.329450 1.028866 1.456547 1.673795 -0.346828 5.341398 1.080050 0.265371 3.537114 -10.711636 -8.508214 1.911850 -60.773952 5.871509 9.733458 0.700397 -16.143615 -0.046215 1.820932 0.855010 3.509667 9.409295 -4.743478 0.409488 69.897147 6.585476 36.558042 -0.228625 11.497440 0.826156 0.000000 0.000000 0.000000 8.517278 9.534092 -55.415268 8.918336 -3.266740 55.563200 0.000000 0.000000 0.000000 -4.899050 -6.320176 -46.548837 -0.955581 -1.705849 54.003535 
0.016850 0.049900 -0.086291 -5.038325 -1.049024 -1.732132 0.000000 -0.000000 0.000000 2.506739 0.773757 14.301501 0.925829 0.446685 2.571413 0.000000 0.000000 0.000000 1.134663 0.631384 2.606527 1.182740 -0.627116 5.381468 1.162460 0.714552 2.983625 -9.555010 -5.697977 0.604700 -66.899187 2.146733 3.621940 0.034831 -20.446755 0.893717 0.794653 0.576673 2.855416 9.500962 -4.359899 0.304290 70.226105 10.336701 28.468658 0.069448 18.621462 0.407377 0.000000 0.000000 -0.000000 8.492620 10.868382 -55.371894 7.768668 -2.994655 53.471214 0.000000 0.000000 0.000000 -3.965476 -6.717902 -48.467243 -0.819826 -1.724773 54.430406 
0.010892 0.039976 -0.139145 -4.806965 -0.474766 -1.491057 0.000000 -0.000000 -0.000000 3.417898 0.690206 16.031663 0.656664 0.533700 2.373339 0.000000 0.000000 0.000000 0.867501 0.388346 2.250650 1.357312 -0.060241 5.209482 1.068450 0.746336 2.592283 -10.341566 -5.186220 0.437360 -64.958455 3.033169 4.911902 0.031033 -20.387255 0.851111 0.622333 0.620049 2.659826 8.603357 -4.048122 0.183843 69.592734 12.495144 26.337441 0.129324 25.209264 0.119111 -0.000000 0.000000 -0.000000 8.490306 10.739017 -54.914660 7.398933 -3.388272 51.855609 0.000000 0.000000 0.000000 -4.186940 -6.260537 -48.818095 -0.223690 -1.350269 54.884194 
0.007729 0.028661 -0.189344 -4.887933 -0.112647 -1.703200 0.000000 0.000000 -0.000000 3.379794 1.163604 16.607323 0.602634 0.485225 2.651771 0.000000 0.000000 0.000000 0.898416 0.415462 2.033021 1.041633 0.012526 5.978575 0.897225 0.575889 2.470767 -8.641748 -3.811257 0.113433 -66.478708 0.327138 2.550039 -0.000867 -20.460061 0.911558 0.676162 0.602333 2.801802 8.377256 -4.268709 0.115589 70.868652 14.471593 25.364421 0.111617 30.877667 -0.024642 -0.000000 0.000000 -0.000000 8.494265 10.894193 -53.917537 7.309425 -3.321016 50.542573 0.000000 0.000000 0.000000 -4.129852 -6.349383 -49.059207 0.326628 -1.067587 55.356098 
0.011427 0.022882 -0.235938 -4.966061 0.174925 -1.889681 0.000000 0.000000 0.000000 3.237815 1.498180 17.193165 0.562565 0.424965 2.839394 0.000000 0.000000 0.000000 0.895620 0.411014 2.085213 1.027658 0.078210 6.570027 0.853656 0.463473 2.454741 -8.090843 -2.795085 -0.107347 -66.805761 -1.634681 0.491479 0.032332 -21.448712 0.872220 0.677122 0.576303 3.030909 8.767123 -4.482026 -0.012459 71.602125 15.818673 24.713374 0.072836 34.565600 -0.113737 -0.000000 0.000000 -0.000000 8.547616 11.142479 -53.481200 7.106130 -3.172996 50.107096 0.000000 0.000000 0.000000 -4.245394 -6.391404 -49.375953 0.578802 -1.010256 55.877668 
0.018314 0.021786 -0.279171 -5.009787 0.228891 -2.016553 0.000000 0.000000 0.000000 3.084202 1.493474 17.567964 0.575342 0.375789 2.959968 0.000000 0.000000 0.000000 0.887354 0.376141 2.234535 1.088499 0.125124 6.910315 0.876022 0.423832 2.595885 -7.891643 -2.208965 -0.251045 -66.476285 -2.410605 0.233132 0.049474 -22.538466 0.810905 0.663126 0.542553 3.174607 9.185137 -4.414275 -0.027655 71.582077 16.500848 23.808694 0.036431 36.414061 -0.157621 -0.000000 0.000000 -0.000000 8.661300 11.389572 -53.287782 7.035811 -3.125640 50.249099 0.000000 0.000000 0.000000 -4.381977 -6.340053 -49.485315 0.674424 -1.004783 56.191844 
0.027079 0.025467 -0.319680 -5.007696 0.151685 -2.054355 0.000000 0.000000 0.000000 2.948284 1.443164 17.701086 0.585390 0.356140 3.030267 0.000000 0.000000 0.000000 0.882654 0.357409 2.338370 1.140953 0.126273 7.027838 0.897492 0.422255 2.694471 -7.625837 -1.580311 -0.406640 -66.014317 -2.686381 0.696512 0.062806 -23.696674 0.822136 0.656714 0.524996 3.229132 9.478345 -4.130830 0.015623 71.378048 16.817214 23.301633 0.022100 36.716898 -0.158895 -0.000000 0.000000 -0.000000 8.752457 11.508045 -53.177028 7.027267 -3.139245 50.420572 0.000000 0.000000 0.000000 -4.451197 -6.279778 -49.426334 0.692712 -1.001353 56.239362 
0.034979 0.029993 -0.358483 -4.995186 0.088787 -2.036080 0.000000 0.000000 0.000000 2.835387 1.462609 17.588040 0.561936 0.357647 3.068131 0.000000 0.000000 0.000000 0.878731 0.354577 2.407984 1.171571 0.109791 7.144404 0.898313 0.434805 2.768637 -7.508110 -1.294128 -0.466381 -65.585858 -2.586744 1.220949 0.062527 -24.832310 0.833399 0.639902 0.532067 3.249947 9.597694 -3.875843 0.067622 71.207192 16.896174 22.929692 0.030290 36.392724 -0.143786 -0.000000 0.000000 -0.000000 8.797998 11.498889 -53.160190 7.030142 -3.160759 50.524911 0.000000 0.000000 0.000000 -4.468143 -6.233676 -49.314636 0.675123 -0.999665 56.142087 
0.039122 0.033832 -0.396450 -4.987028 0.058211 -1.990917 0.000000 0.000000 0.000000 2.775330 1.496671 17.503771 0.540285 0.368642 3.092152 0.000000 0.000000 0.000000 0.870633 0.358074 2.474568 1.183160 0.093556 7.254834 0.889439 0.454249 2.828443 -7.329115 -1.022434 -0.526830 -65.335229 -2.210505 1.728402 0.052614 -25.876376 0.843201 0.618378 0.545416 3.260545 9.601367 -3.705857 0.111845 71.137694 16.885391 22.594393 0.039083 36.105102 -0.120293 -0.000000 0.000000 -0.000000 8.824166 11.454976 -53.215235 7.022409 -3.200676 50.597407 0.000000 0.000000 0.000000 -4.467902 -6.214759 -49.263525 0.674684 -0.994583 56.061845 
0.040453 0.036913 -0.433648 -4.986457 0.053388 -1.951435 0.000000 0.000000 0.000000 2.770403 1.519181 17.554310 0.515098 0.381352 3.115389 0.000000 0.000000 0.000000 0.856866 0.360780 2.507216 1.176263 0.078286 7.355276 0.875173 0.469015 2.858146 -7.131546 -0.723395 -0.608866 -65.248882 -1.868898 2.125219 0.050736 -26.822900 0.863366 0.595875 0.554055 3.270617 9.521865 -3.686047 0.145795 71.157282 16.861385 22.288465 0.046038 35.936357 -0.100165 -0.000000 0.000000 -0.000000 8.837702 11.394153 -53.296008 7.008650 -3.245359 50.640710 0.000000 0.000000 0.000000 -4.456583 -6.213401 -49.292846 0.676302 -0.984365 56.070631 
0.039486 0.039863 -0.470049 -4.990839 0.064055 -1.932965 0.000000 0.000000 0.000000 2.808090 1.496697 17.713132 0.488656 0.386915 3.137706 0.000000 0.000000 0.000000 0.838783 0.357977 2.523067 1.159898 0.070212 7.471810 0.856183 0.474273 2.871623 -6.925428 -0.453445 -0.692157 -65.325639 -1.621661 2.452905 0.049142 -27.571943 0.868987 0.572774 0.555650 3.278201 9.414002 -3.799975 0.166586 71.213300 16.796600 21.927843 0.048730 35.868007 -0.081979 -0.000000 0.000000 -0.000000 8.844616 11.337782 -53.377525 6.992016 -3.290552 50.677407 0.000000 0.000000 0.000000 -4.446663 -6.224589 -49.361736 0.671626 -0.974785 56.141390 
0.036737 0.043160 -0.505868 -4.995595 0.083022 -1.930874 0.000000 0.000000 0.000000 2.870542 1.455038 17.945668 0.465143 0.388438 3.162685 0.000000 0.000000 0.000000 0.820495 0.352964 2.532634 1.151179 0.060229 7.599269 0.836203 0.473205 2.877786 -6.736442 -0.191859 -0.772808 -65.481836 -1.482401 2.751509 0.048533 -28.182010 0.876610 0.552000 0.552337 3.288125 9.285437 -3.973747 0.174889 71.295865 16.597873 21.666232 0.044494 36.128139 -0.066890 -0.000000 0.000000 -0.000000 8.848448 11.296314 -53.454373 6.973877 -3.325201 50.729089 0.000000 0.000000 0.000000 -4.444038 -6.241264 -49.438003 0.667141 -0.967460 56.232080 
0.032776 0.046900 -0.541400 -4.999174 0.101650 -1.939769 0.000000 0.000000 0.000000 2.947447 1.405825 18.210895 0.451045 0.382163 3.192638 0.000000 0.000000 0.000000 0.802141 0.347192 2.543073 1.145282 0.042477 7.742040 0.816370 0.470085 2.885875 -6.579760 0.029249 -0.841881 -65.683155 -1.399892 3.051178 0.048408 -28.615128 0.883289 0.530015 0.548469 3.298714 9.122805 -4.132837 0.181755 71.443053 16.293618 21.387314 0.038916 36.611183 -0.047891 -0.000000 0.000000 -0.000000 8.846521 11.263188 -53.518877 6.961305 -3.352655 50.789206 0.000000 0.000000 0.000000 -4.447585 -6.254813 -49.504386 0.660366 -0.963440 56.322119 
0.027994 0.050926 -0.576859 -5.001565 0.119325 -1.953957 0.000000 0.000000 0.000000 3.018971 1.358180 18.463395 0.437830 0.376292 3.224598 0.000000 0.000000 0.000000 0.781868 0.341618 2.559804 1.141952 0.019368 7.895987 0.799775 0.469093 2.897512 -6.438874 0.244524 -0.904985 -65.876858 -1.327315 3.356270 0.047662 -28.962474 0.890343 0.504484 0.546853 3.306663 8.935597 -4.261839 0.186091 71.704666 15.888692 20.925604 0.045171 37.911233 -0.013270 -0.000000 0.000000 -0.000000 8.845225 11.237033 -53.568554 6.951763 -3.371558 50.846186 0.000000 0.000000 0.000000 -4.450021 -6.269922 -49.559101 0.655924 -0.960499 56.396981 
0.022845 0.055247 -0.612355 -5.000869 0.135295 -1.967006 0.000000 0.000000 0.000000 3.072022 1.324642 18.696974 0.422992 0.371440 3.259602 0.000000 0.000000 0.000000 0.759202 0.337150 2.580289 1.142646 -0.008301 8.053692 0.784853 0.468373 2.915371 -6.335852 0.448495 -0.961914 -66.048883 -1.236652 3.651315 0.049000 -29.292659 0.896899 0.474562 0.548260 3.312137 8.687286 -4.343909 0.196600 71.843342 15.358378 19.826557 0.061636 40.813936 0.025088 -0.000000 0.000000 -0.000000 8.839008 11.216387 -53.606909 6.943589 -3.389378 50.895388 0.000000 0.000000 0.000000 -4.454667 -6.286281 -49.598260 0.650010 -0.958488 56.460546 
